<svg class="dr-logo-gears-animated" width="100%" height="100%" xmlns="http://www.w3.org/2000/svg" xmlns:xlink="http://www.w3.org/1999/xlink" viewBox="0 0 100 100" preserveAspectRatio="xMidYMid">
  <g transform="translate(50 50)">
    <g transform="translate(19 -19) scale(0.6)">
      <g transform="rotate(150)">
        <animateTransform attributeName="transform" type="rotate" values="360;0" keyTimes="0;1" dur="10s" begin="0s" repeatCount="indefinite"></animateTransform>
        <path class="gear-large" d="M37.1-8h6c2.2,0,4,1.8,4,4v8c0,2.2-1.8,4-4,4h-6c-1,4.5-2.7,8.8-5.2,12.6l0,0l4.2,4.2c1.6,1.6,1.6,4.1,0,5.7
        l-5.7,5.7c-1.6,1.6-4.1,1.6-5.7,0L20.5,32c-3.9,2.5-8.1,4.3-12.6,5.2l0,0v6c0,2.2-1.8,4-4,4h-8c-2.2,0-4-1.8-4-4v-6
        c-4.5-1-8.8-2.7-12.6-5.2l0,0l-4.2,4.2c-1.6,1.6-4.1,1.6-5.7,0l-5.7-5.7c-1.6-1.6-1.6-4.1,0-5.7l4.2-4.2c-2.5-3.9-4.3-8.1-5.2-12.6
        l0,0h-6c-2.2,0-4-1.8-4-4v-8c0-2.2,1.8-4,4-4h6c1-4.5,2.7-8.8,5.2-12.6l0,0l-4.2-4.2c-1.6-1.6-1.6-4.1,0-5.7l5.7-5.7
        c1.6-1.6,4.1-1.6,5.7,0l4.2,4.2c3.9-2.5,8.1-4.3,12.6-5.2l0,0v-6c0-2.2,1.8-4,4-4h8c2.2,0,4,1.8,4,4v6c4.5,1,8.8,2.7,12.6,5.2l0,0
        l4.2-4.2c1.6-1.6,4.1-1.6,5.7,0l5.7,5.7c1.6,1.6,1.6,4.1,0,5.7l-4.2,4.2C34.4-16.8,36.2-12.5,37.1-8 M0-25
        c-14.3,0-25.9,12.1-25,26.6C-24.2,14-14,24.2-1.6,25C12.9,25.9,25,14.3,25,0C25-13.8,13.8-25,0-25"/>
      </g>
    </g>
    <g transform="translate(-13 13) scale(0.4)">
      <g transform="rotate(175)">
        <animateTransform attributeName="transform" type="rotate" values="0;360" keyTimes="0;1" dur="10s" begin="-0.56s" repeatCount="indefinite"></animateTransform>
        <path class="gear-small" d="M37.1-8h6c2.2,0,4,1.8,4,4v8c0,2.2-1.8,4-4,4h-6c-1,4.5-2.7,8.8-5.2,12.6l0,0l4.2,4.2c1.6,1.6,1.6,4.1,0,5.7
        l-5.7,5.7c-1.6,1.6-4.1,1.6-5.7,0l-4.2-4.2c-3.9,2.5-8.1,4.3-12.6,5.2l0,0v6c0,2.2-1.8,4-4,4h-8c-2.2,0-4-1.8-4-4v-6
        c-4.5-1-8.8-2.7-12.6-5.2l0,0l-4.2,4.2c-1.6,1.6-4.1,1.6-5.7,0l-5.7-5.7c-1.6-1.6-1.6-4.1,0-5.7l4.2-4.2c-2.5-3.9-4.3-8.1-5.2-12.6
        l0,0h-6c-2.2,0-4-1.8-4-4v-8c0-2.2,1.8-4,4-4h6c1-4.5,2.7-8.8,5.2-12.6l0,0l-4.2-4.2c-1.6-1.6-1.6-4.1,0-5.7l5.7-5.7
        c1.6-1.6,4.1-1.6,5.7,0l4.2,4.2c3.9-2.5,8.1-4.3,12.6-5.2l0,0v-6c0-2.2,1.8-4,4-4h8c2.2,0,4,1.8,4,4v6c4.5,1,8.8,2.7,12.6,5.2l0,0
        l4.2-4.2c1.6-1.6,4.1-1.6,5.7,0l5.7,5.7c1.6,1.6,1.6,4.1,0,5.7l-4.2,4.2C34.4-16.8,36.2-12.5,37.1-8 M0-25
        c-14.3,0-25.9,12.1-25,26.6C-24.2,14-14,24.2-1.6,25C12.9,25.9,25,14.3,25,0C25-13.8,13.8-25,0-25" />
      </g>
    </g>
  </g>
</svg>
